<?xml version="1.0" encoding="UTF-8"?>
<svg id="Layer_2" data-name="Layer 2" xmlns="http://www.w3.org/2000/svg" viewBox="0 0 1793.02 614.39">
  <defs>
    <style>
      .cls-1 {
        fill: #28221b;
      }
    </style>
  </defs>
  <g id="Layer_1-2" data-name="Layer 1">
    <g>
      <path class="cls-1" d="M218.04,486.74c-3.19-3.62-7.45-6.54-12.76-8.78-5.32-2.23-11.38-3.35-18.19-3.35-10,0-17.29,1.89-21.86,5.66-4.58,3.78-6.86,8.91-6.86,15.4,0,3.41,.61,6.2,1.83,8.38,1.22,2.18,3.11,4.07,5.66,5.66,2.55,1.6,5.82,2.98,9.81,4.15,3.99,1.17,8.7,2.34,14.12,3.51,6.06,1.28,11.51,2.71,16.36,4.31,4.84,1.6,8.96,3.59,12.37,5.98,3.4,2.39,6.01,5.29,7.82,8.7,1.81,3.41,2.71,7.66,2.71,12.77s-1.01,9.73-3.03,13.56c-2.02,3.83-4.84,7.02-8.46,9.57-3.62,2.55-7.93,4.44-12.92,5.66-5,1.22-10.48,1.83-16.43,1.83-17.55,0-32.71-5.48-45.47-16.43l5.58-9.1c2.02,2.13,4.44,4.15,7.26,6.06,2.82,1.91,5.96,3.59,9.41,5.03,3.46,1.44,7.15,2.55,11.09,3.35,3.93,.8,8.08,1.2,12.45,1.2,9.04,0,16.09-1.62,21.14-4.87,5.05-3.24,7.58-8.16,7.58-14.76,0-3.51-.72-6.46-2.15-8.86-1.44-2.39-3.59-4.47-6.46-6.22-2.87-1.75-6.44-3.27-10.69-4.55-4.26-1.28-9.2-2.55-14.84-3.83-5.96-1.38-11.17-2.82-15.64-4.31-4.47-1.49-8.25-3.35-11.33-5.59-3.09-2.23-5.4-4.92-6.94-8.06-1.54-3.14-2.31-6.99-2.31-11.57,0-5.21,.98-9.87,2.95-13.96,1.97-4.09,4.76-7.5,8.38-10.21,3.62-2.71,7.87-4.79,12.77-6.22,4.89-1.44,10.32-2.15,16.28-2.15,7.55,0,14.28,1.14,20.18,3.43,5.9,2.29,11.25,5.51,16.04,9.65l-5.43,8.94Z"/>
      <path class="cls-1" d="M240.7,537c0-5.85,1.01-11.38,3.03-16.59,2.02-5.21,4.87-9.76,8.54-13.64s8.06-6.94,13.16-9.18c5.11-2.23,10.74-3.35,16.91-3.35,7.87,0,14.73,1.78,20.58,5.34,5.85,3.57,10.26,8.38,13.24,14.44l-10.53,3.35c-2.34-4.25-5.61-7.58-9.81-9.97-4.2-2.39-8.86-3.59-13.96-3.59-4.26,0-8.22,.85-11.89,2.55-3.67,1.7-6.86,4.02-9.57,6.94-2.71,2.93-4.84,6.41-6.38,10.45-1.54,4.04-2.31,8.46-2.31,13.24s.8,9.1,2.39,13.24,3.77,7.74,6.54,10.77c2.76,3.03,5.98,5.43,9.65,7.18,3.67,1.76,7.58,2.63,11.73,2.63,2.66,0,5.29-.37,7.9-1.12,2.61-.74,5.03-1.78,7.26-3.11,2.23-1.33,4.15-2.85,5.74-4.55,1.6-1.7,2.71-3.51,3.35-5.42l10.69,3.19c-1.17,2.98-2.87,5.72-5.11,8.22-2.23,2.5-4.87,4.68-7.9,6.54-3.03,1.86-6.38,3.3-10.05,4.31s-7.47,1.52-11.41,1.52c-6.06,0-11.65-1.14-16.75-3.43-5.11-2.29-9.52-5.43-13.24-9.41-3.72-3.99-6.62-8.59-8.7-13.8-2.07-5.21-3.11-10.79-3.11-16.75Z"/>
      <path class="cls-1" d="M354.94,580.4c-3.94,0-7.58-.67-10.93-1.99-3.35-1.33-6.28-3.16-8.78-5.5-2.5-2.34-4.44-5.08-5.82-8.22-1.38-3.14-2.07-6.51-2.07-10.13s.85-6.97,2.55-10.05c1.7-3.08,4.09-5.74,7.18-7.98,3.08-2.23,6.75-3.96,11.01-5.19,4.25-1.22,8.94-1.84,14.04-1.84,4.25,0,8.56,.38,12.92,1.12,4.36,.75,8.24,1.81,11.65,3.19v-7.5c0-7.34-2.07-13.16-6.22-17.47-4.15-4.31-9.89-6.46-17.23-6.46-4.26,0-8.62,.85-13.08,2.55-4.47,1.7-8.99,4.15-13.56,7.34l-3.83-7.18c10.74-7.23,21.17-10.85,31.27-10.85s18.61,2.93,24.57,8.78c5.96,5.85,8.94,13.94,8.94,24.25v37.5c0,2.98,1.33,4.47,3.99,4.47v9.57c-1.81,.32-3.19,.48-4.15,.48-2.77,0-4.92-.69-6.46-2.07-1.54-1.38-2.37-3.29-2.47-5.74l-.32-6.54c-3.83,5-8.64,8.83-14.44,11.49-5.8,2.66-12.05,3.99-18.75,3.99Zm2.55-8.3c5.64,0,10.82-1.06,15.56-3.19,4.73-2.13,8.32-4.95,10.77-8.46,.96-.96,1.68-1.99,2.15-3.11s.72-2.15,.72-3.11v-13.56c-3.62-1.38-7.37-2.45-11.25-3.19-3.88-.74-7.85-1.12-11.89-1.12-7.66,0-13.88,1.6-18.67,4.79s-7.18,7.39-7.18,12.61c0,2.55,.5,4.95,1.52,7.18,1.01,2.23,2.39,4.18,4.15,5.82,1.75,1.65,3.85,2.95,6.3,3.91,2.45,.96,5.05,1.44,7.82,1.44Z"/>
      <path class="cls-1" d="M490.89,578.8h-10.85v-46.43c0-9.89-1.46-17.07-4.39-21.54-2.93-4.47-7.42-6.7-13.48-6.7-3.19,0-6.38,.59-9.57,1.75-3.19,1.17-6.14,2.82-8.86,4.95-2.71,2.13-5.13,4.65-7.26,7.58-2.13,2.93-3.67,6.09-4.63,9.49v50.9h-10.85v-83.13h9.89v18.83c3.4-6.06,8.27-10.96,14.6-14.68,6.33-3.72,13.22-5.58,20.66-5.58,4.57,0,8.46,.85,11.65,2.55,3.19,1.7,5.74,4.1,7.66,7.18,1.92,3.09,3.3,6.86,4.15,11.33,.85,4.47,1.28,9.41,1.28,14.84v48.67Z"/>
      <path class="cls-1" d="M548.17,580.4c-5.74,0-11.06-1.2-15.96-3.59-4.89-2.39-9.09-5.56-12.61-9.49-3.51-3.93-6.25-8.48-8.22-13.64-1.97-5.16-2.95-10.55-2.95-16.2s.96-11.41,2.87-16.67c1.91-5.27,4.55-9.87,7.9-13.8,3.35-3.93,7.34-7.04,11.97-9.33,4.63-2.29,9.71-3.43,15.24-3.43,7.02,0,13.24,1.83,18.67,5.5,5.42,3.67,9.68,8.11,12.76,13.32v-50.74h10.85v102.44c0,2.98,1.28,4.47,3.83,4.47v9.57c-1.6,.32-2.87,.48-3.83,.48-2.55,0-4.79-.82-6.7-2.47-1.92-1.65-2.87-3.64-2.87-5.98v-8.14c-3.3,5.43-7.77,9.73-13.4,12.92-5.64,3.19-11.49,4.79-17.55,4.79Zm2.39-9.57c2.66,0,5.5-.53,8.54-1.59,3.03-1.06,5.88-2.53,8.54-4.39,2.66-1.86,4.92-4.04,6.78-6.54,1.86-2.5,3-5.19,3.43-8.06v-25.69c-1.06-2.87-2.61-5.56-4.63-8.06-2.02-2.5-4.34-4.71-6.94-6.62-2.61-1.92-5.4-3.4-8.38-4.47-2.98-1.06-5.9-1.6-8.78-1.6-4.47,0-8.51,.96-12.13,2.87-3.62,1.91-6.73,4.44-9.33,7.58-2.61,3.14-4.6,6.73-5.98,10.77-1.38,4.04-2.07,8.19-2.07,12.45,0,4.47,.8,8.72,2.39,12.77,1.6,4.04,3.77,7.58,6.54,10.61,2.76,3.03,6.04,5.45,9.81,7.26,3.77,1.81,7.84,2.71,12.21,2.71Z"/>
      <path class="cls-1" d="M613.27,478.28v-15.96h10.85v15.96h-10.85Zm0,100.52v-83.13h10.85v83.13h-10.85Z"/>
      <path class="cls-1" d="M717.94,578.8h-10.85v-46.43c0-9.89-1.46-17.07-4.39-21.54-2.93-4.47-7.42-6.7-13.48-6.7-3.19,0-6.38,.59-9.57,1.75-3.19,1.17-6.14,2.82-8.86,4.95-2.71,2.13-5.13,4.65-7.26,7.58-2.13,2.93-3.67,6.09-4.63,9.49v50.9h-10.85v-83.13h9.89v18.83c3.4-6.06,8.27-10.96,14.6-14.68,6.33-3.72,13.22-5.58,20.66-5.58,4.57,0,8.46,.85,11.65,2.55,3.19,1.7,5.74,4.1,7.66,7.18,1.92,3.09,3.3,6.86,4.15,11.33,.85,4.47,1.28,9.41,1.28,14.84v48.67Z"/>
      <path class="cls-1" d="M761.98,580.4c-3.94,0-7.58-.67-10.93-1.99-3.35-1.33-6.28-3.16-8.78-5.5-2.5-2.34-4.44-5.08-5.82-8.22-1.38-3.14-2.07-6.51-2.07-10.13s.85-6.97,2.55-10.05c1.7-3.08,4.09-5.74,7.18-7.98,3.08-2.23,6.75-3.96,11.01-5.19,4.25-1.22,8.94-1.84,14.04-1.84,4.25,0,8.56,.38,12.92,1.12,4.36,.75,8.24,1.81,11.65,3.19v-7.5c0-7.34-2.07-13.16-6.22-17.47-4.15-4.31-9.89-6.46-17.23-6.46-4.26,0-8.62,.85-13.08,2.55-4.47,1.7-8.99,4.15-13.56,7.34l-3.83-7.18c10.74-7.23,21.17-10.85,31.27-10.85s18.61,2.93,24.57,8.78c5.96,5.85,8.94,13.94,8.94,24.25v37.5c0,2.98,1.33,4.47,3.99,4.47v9.57c-1.81,.32-3.19,.48-4.15,.48-2.77,0-4.92-.69-6.46-2.07-1.54-1.38-2.37-3.29-2.47-5.74l-.32-6.54c-3.83,5-8.64,8.83-14.44,11.49-5.8,2.66-12.05,3.99-18.75,3.99Zm2.55-8.3c5.64,0,10.82-1.06,15.56-3.19,4.73-2.13,8.32-4.95,10.77-8.46,.96-.96,1.68-1.99,2.15-3.11s.72-2.15,.72-3.11v-13.56c-3.62-1.38-7.37-2.45-11.25-3.19-3.88-.74-7.85-1.12-11.89-1.12-7.66,0-13.88,1.6-18.67,4.79s-7.18,7.39-7.18,12.61c0,2.55,.5,4.95,1.52,7.18,1.01,2.23,2.39,4.18,4.15,5.82,1.75,1.65,3.85,2.95,6.3,3.91,2.45,.96,5.05,1.44,7.82,1.44Z"/>
      <path class="cls-1" d="M850.7,578.8l-33.83-83.13h11.17l28.56,73.08,28.72-73.08h10.53l-33.83,83.13h-11.33Z"/>
      <path class="cls-1" d="M910.85,478.28v-15.96h10.85v15.96h-10.85Zm0,100.52v-83.13h10.85v83.13h-10.85Z"/>
      <path class="cls-1" d="M966.54,580.4c-3.94,0-7.58-.67-10.93-1.99-3.35-1.33-6.28-3.16-8.78-5.5-2.5-2.34-4.44-5.08-5.82-8.22-1.38-3.14-2.07-6.51-2.07-10.13s.85-6.97,2.55-10.05c1.7-3.08,4.09-5.74,7.18-7.98,3.08-2.23,6.75-3.96,11.01-5.19,4.25-1.22,8.94-1.84,14.04-1.84,4.25,0,8.56,.38,12.92,1.12,4.36,.75,8.24,1.81,11.65,3.19v-7.5c0-7.34-2.07-13.16-6.22-17.47-4.15-4.31-9.89-6.46-17.23-6.46-4.26,0-8.62,.85-13.08,2.55-4.47,1.7-8.99,4.15-13.56,7.34l-3.83-7.18c10.74-7.23,21.17-10.85,31.27-10.85s18.61,2.93,24.57,8.78c5.96,5.85,8.94,13.94,8.94,24.25v37.5c0,2.98,1.33,4.47,3.99,4.47v9.57c-1.81,.32-3.19,.48-4.15,.48-2.77,0-4.92-.69-6.46-2.07-1.54-1.38-2.37-3.29-2.47-5.74l-.32-6.54c-3.83,5-8.64,8.83-14.44,11.49-5.8,2.66-12.05,3.99-18.75,3.99Zm2.55-8.3c5.64,0,10.82-1.06,15.56-3.19,4.73-2.13,8.32-4.95,10.77-8.46,.96-.96,1.68-1.99,2.15-3.11s.72-2.15,.72-3.11v-13.56c-3.62-1.38-7.37-2.45-11.25-3.19-3.88-.74-7.85-1.12-11.89-1.12-7.66,0-13.88,1.6-18.67,4.79s-7.18,7.39-7.18,12.61c0,2.55,.5,4.95,1.52,7.18,1.01,2.23,2.39,4.18,4.15,5.82,1.75,1.65,3.85,2.95,6.3,3.91,2.45,.96,5.05,1.44,7.82,1.44Z"/>
      <path class="cls-1" d="M1102.48,578.8h-10.85v-46.43c0-9.89-1.46-17.07-4.39-21.54-2.93-4.47-7.42-6.7-13.48-6.7-3.19,0-6.38,.59-9.57,1.75-3.19,1.17-6.14,2.82-8.86,4.95-2.71,2.13-5.13,4.65-7.26,7.58-2.13,2.93-3.67,6.09-4.63,9.49v50.9h-10.85v-83.13h9.89v18.83c3.4-6.06,8.27-10.96,14.6-14.68,6.33-3.72,13.22-5.58,20.66-5.58,4.57,0,8.46,.85,11.65,2.55,3.19,1.7,5.74,4.1,7.66,7.18,1.92,3.09,3.3,6.86,4.15,11.33,.85,4.47,1.28,9.41,1.28,14.84v48.67Z"/>
      <path class="cls-1" d="M1168.54,578.8v-113.29h38.45c9.04,0,16.94,1.49,23.7,4.47,6.75,2.98,12.39,7.02,16.91,12.13,4.52,5.11,7.92,11.09,10.21,17.95,2.29,6.86,3.43,14.18,3.43,21.94,0,8.62-1.28,16.41-3.83,23.38-2.55,6.97-6.2,12.92-10.93,17.87-4.73,4.95-10.43,8.78-17.07,11.49-6.65,2.71-14.12,4.07-22.42,4.07h-38.45Zm81.54-56.8c0-6.81-.96-13.06-2.87-18.75-1.92-5.69-4.71-10.61-8.38-14.76-3.67-4.15-8.17-7.37-13.48-9.65-5.32-2.29-11.44-3.43-18.35-3.43h-27.29v93.5h27.29c7.02,0,13.22-1.2,18.59-3.59,5.37-2.39,9.87-5.69,13.48-9.89,3.62-4.2,6.35-9.15,8.22-14.84,1.86-5.69,2.79-11.89,2.79-18.59Z"/>
      <path class="cls-1" d="M1316.29,580.4c-6.06,0-11.62-1.14-16.67-3.43-5.05-2.29-9.44-5.43-13.16-9.41-3.72-3.99-6.62-8.59-8.7-13.8-2.07-5.21-3.11-10.79-3.11-16.75s1.04-11.35,3.11-16.52c2.07-5.16,4.95-9.68,8.62-13.56,3.67-3.88,8.06-6.96,13.16-9.25,5.11-2.29,10.64-3.43,16.59-3.43s11.62,1.14,16.67,3.43c5.05,2.29,9.39,5.4,13,9.33,3.62,3.94,6.43,8.46,8.46,13.56,2.02,5.11,3.03,10.53,3.03,16.28v2.55c0,.85-.05,1.44-.16,1.76h-71.17c.32,4.47,1.36,8.59,3.11,12.37,1.75,3.78,4.01,7.05,6.78,9.81,2.77,2.77,5.93,4.92,9.49,6.46,3.56,1.54,7.37,2.31,11.41,2.31,2.66,0,5.32-.37,7.98-1.12,2.66-.74,5.11-1.75,7.34-3.03,2.23-1.28,4.25-2.85,6.06-4.71,1.81-1.86,3.19-3.91,4.15-6.14l9.41,2.55c-1.28,3.09-3.09,5.88-5.42,8.38-2.34,2.5-5.05,4.68-8.14,6.54-3.09,1.86-6.49,3.3-10.21,4.31-3.72,1.01-7.61,1.52-11.65,1.52Zm30.64-47.55c-.32-4.47-1.36-8.54-3.11-12.21-1.75-3.67-3.99-6.83-6.7-9.49-2.71-2.66-5.85-4.73-9.41-6.22-3.57-1.49-7.37-2.23-11.41-2.23s-7.87,.75-11.49,2.23c-3.62,1.49-6.78,3.57-9.49,6.22-2.71,2.66-4.89,5.85-6.54,9.57-1.65,3.72-2.63,7.77-2.95,12.13h61.11Z"/>
      <path class="cls-1" d="M1401.66,580.4c-6.49,0-12.82-1.06-18.99-3.19-6.17-2.13-11.49-5.21-15.96-9.25l4.95-7.34c4.68,3.83,9.44,6.7,14.28,8.62,4.84,1.91,10.03,2.87,15.56,2.87,6.7,0,12.05-1.36,16.04-4.07,3.99-2.71,5.98-6.57,5.98-11.57,0-2.34-.53-4.28-1.6-5.82-1.06-1.54-2.63-2.9-4.71-4.07-2.07-1.17-4.68-2.21-7.82-3.11-3.14-.9-6.78-1.84-10.93-2.79-4.79-1.17-8.94-2.34-12.45-3.51-3.51-1.17-6.41-2.5-8.7-3.99-2.29-1.49-3.99-3.32-5.11-5.5-1.12-2.18-1.67-4.92-1.67-8.22,0-4.15,.82-7.82,2.47-11.01,1.65-3.19,3.88-5.82,6.7-7.9,2.82-2.08,6.12-3.64,9.89-4.71,3.77-1.06,7.79-1.6,12.05-1.6,6.38,0,12.18,1.04,17.39,3.11,5.21,2.07,9.41,4.81,12.61,8.22l-5.27,6.38c-3.09-3.19-6.84-5.59-11.25-7.18-4.42-1.59-9.02-2.39-13.8-2.39-2.87,0-5.53,.29-7.98,.88-2.45,.59-4.6,1.52-6.46,2.79-1.86,1.28-3.33,2.9-4.39,4.87-1.06,1.97-1.6,4.28-1.6,6.94,0,2.23,.37,4.04,1.12,5.42,.74,1.38,1.97,2.58,3.67,3.59,1.7,1.01,3.85,1.92,6.46,2.71,2.61,.8,5.77,1.62,9.49,2.47,5.32,1.28,10,2.55,14.04,3.83,4.04,1.28,7.42,2.77,10.13,4.47,2.71,1.7,4.76,3.78,6.14,6.22,1.38,2.45,2.07,5.42,2.07,8.94,0,7.66-2.93,13.72-8.78,18.19-5.85,4.47-13.72,6.7-23.62,6.7Z"/>
      <path class="cls-1" d="M1451.76,478.28v-15.96h10.85v15.96h-10.85Zm0,100.52v-83.13h10.85v83.13h-10.85Z"/>
      <path class="cls-1" d="M1519.89,579.92c-5.74,0-10.98-1.2-15.72-3.59-4.73-2.39-8.83-5.56-12.29-9.49-3.46-3.93-6.14-8.46-8.06-13.56-1.92-5.11-2.87-10.37-2.87-15.8,0-5.74,.93-11.25,2.79-16.51,1.86-5.27,4.49-9.87,7.9-13.8,3.4-3.93,7.47-7.07,12.21-9.41,4.73-2.34,9.97-3.51,15.72-3.51,7.13,0,13.3,1.78,18.51,5.34,5.21,3.57,9.68,8.06,13.4,13.48v-17.39h9.73v83.45c0,5.74-1.09,10.82-3.27,15.24-2.18,4.41-5.11,8.11-8.78,11.09s-7.98,5.21-12.92,6.7c-4.95,1.49-10.19,2.23-15.72,2.23-9.57,0-17.29-1.7-23.14-5.11-5.85-3.41-10.59-7.98-14.2-13.72l6.7-5.27c3.3,5.32,7.66,9.23,13.08,11.73,5.42,2.5,11.27,3.75,17.55,3.75,4.04,0,7.87-.56,11.49-1.68,3.62-1.12,6.78-2.77,9.49-4.95,2.71-2.18,4.87-4.95,6.46-8.3,1.6-3.35,2.39-7.26,2.39-11.73v-16.44c-3.19,5.32-7.55,9.52-13.08,12.61-5.53,3.09-11.33,4.63-17.39,4.63Zm3.03-9.1c3.19,0,6.33-.58,9.41-1.75,3.08-1.17,5.88-2.74,8.38-4.71,2.5-1.97,4.6-4.17,6.3-6.62,1.7-2.45,2.82-4.95,3.35-7.5v-25.69c-1.17-2.98-2.77-5.74-4.79-8.3-2.02-2.55-4.31-4.73-6.86-6.54-2.55-1.81-5.29-3.24-8.22-4.31-2.93-1.06-5.88-1.6-8.86-1.6-4.68,0-8.86,.99-12.53,2.95-3.67,1.97-6.78,4.55-9.33,7.74s-4.5,6.81-5.82,10.85c-1.33,4.04-1.99,8.14-1.99,12.29,0,4.47,.8,8.72,2.39,12.76,1.59,4.04,3.8,7.58,6.62,10.61,2.82,3.03,6.09,5.43,9.81,7.18,3.72,1.76,7.76,2.63,12.13,2.63Z"/>
      <path class="cls-1" d="M1655.04,578.8h-10.85v-46.43c0-9.89-1.46-17.07-4.39-21.54-2.93-4.47-7.42-6.7-13.48-6.7-3.19,0-6.38,.59-9.57,1.75-3.19,1.17-6.14,2.82-8.86,4.95-2.71,2.13-5.13,4.65-7.26,7.58-2.13,2.93-3.67,6.09-4.63,9.49v50.9h-10.85v-83.13h9.89v18.83c3.4-6.06,8.27-10.96,14.6-14.68,6.33-3.72,13.22-5.58,20.66-5.58,4.57,0,8.46,.85,11.65,2.55,3.19,1.7,5.74,4.1,7.66,7.18,1.92,3.09,3.3,6.86,4.15,11.33,.85,4.47,1.28,9.41,1.28,14.84v48.67Z"/>
    </g>
    <g>
      <path class="cls-1" d="M662.71,426.4h-4.52c-59.45-120.74-115.66-232.91-159.95-313.55-12.72,109.03-23.37,214.85-29.43,313.55h-40.96c21.9-127.53,40.79-272.01,58.01-425.94h10.23c59.33,118.33,118.15,231.24,176.34,337.38C736.17,217.11,797.19,103.42,854.05,.46h6.83c17.91,157.85,34.67,304.35,48.95,425.94-19.48-.98-37.86-1.03-54.96,0-9.14-113.87-18.96-220.51-30.04-313.55-59.24,102.27-113.65,206.62-162.11,313.55Z"/>
      <path class="cls-1" d="M1571.99,426.41c-141.35,1.13-208.69-75.86-223.9-168.52-13.26-80.78,9.32-169.84,80.5-219.25,40.67-28.23,92.33-41.59,157.75-38.1,134.27,7.17,203.75,99.66,206.19,199.65,4.31,69.56-19.75,139.04-77.67,183.65-35.82,27.59-83.31,42.1-142.87,42.57Zm-173.08-206.17c-.41,62.63,16.77,111.32,45.84,143.48,31.7,35.07,76.38,50.7,121.02,50.82,46.21,.12,92.41-16.47,125.99-51.01,14.13-14.54,24.81-34.17,31.94-54.73,11.49-33.12,16.74-72.32,12.14-120.06-2.79-28.88-8.63-54.43-18.4-76.03-8.69-19.21-20.63-35.27-34.09-48.16-31.14-29.82-73.73-42.34-114.59-42.38-44.79-.04-89.8,15.54-122.69,50.32s-46.76,85.63-47.17,147.73Z"/>
      <path class="cls-1" d="M322.05,426.4s-59.81-157.15-63.21-160.93c-49.25-2.46-156.26-.68-155.49,0-24.37,62.79-47.79,122.48-59.21,160.93-14.74-.78-29.83-.81-44.14,0C.46,426.21,185.13,16.61,190.84,.46h11.05c3.12,12.63,176.97,423.35,183.79,425.94h-63.63Zm-71.17-188.61L181.89,81.83,114.85,237.79c43.45,1.73,88.94,1.59,136.02,0Z"/>
      <g>
        <path class="cls-1" d="M1209.7,210.94c-16.52-6.27-59.5-12.07-59.5-12.07,0,0,42.08-11.35,63.53-27.02,27.65-21.21,42.97-44.17,42.97-77.4s-3.96-55.39-44.99-79.09C1179.7,1.96,1155.05,.04,1123.87,.59c.82,6.83,1.08,16.76,1.16,23.66l2.33,.05c1.34,.23,2.68,.44,4.04,.58,9.88,1.04,19.41,3.37,28.47,7.47,56.37,22.87,54.53,112.32,3.31,140.04-6.62,4.02-14,6.89-21.23,9.8l-6.74,.98c1.02,14.16,1.51,26.32,1.25,35.59l5.28,.45c12.92,2.56,25.32,6.57,36.8,13.15,58.17,34.43,41,133.11-14.63,161.95-4.61,2.49-9.6,4.3-14.44,6.34l-3.85,.34c.43,7.35,1.32,18.06,1.82,23.9,19.56-1.44,34.85-4.11,40.99-8.88,52.57-18.72,82.75-56.62,82.75-113.26,0-44.57-18.11-77.27-61.46-91.81Z"/>
        <path class="cls-1" d="M1092.87,405.59l-5.25,.46c-9.84-.58-19.67-1.17-29.51-1.84-5.74-.39-5.99-.65-6.23-6.3-.58-13.41-3.51-179.72-3.52-180.4-.03-2.57,1.29-3.7,3.8-3.62,1.19,.04,19.89,.05,28.04,.04l5.86,.5c-.2-12.2-.44-19.65-.66-24.06l-6.1,.88c-8.5-.05-17,.01-25.5-.02-5.22-.02-5.42-.24-5.48-5.48-.59-51.68,1.02-103.3,3.55-154.91,.24-4.85,.55-5.21,5.23-5.74,6.25-.7,12.52-1.2,18.77-1.89l4.77,.1-.38-21.41c-23.33,.62-51.06,.77-86.15-1.46,4.79,138.81,4.57,280.94,.04,425.94,16.18-1.56,58.19,.04,99.3,.02-.11-6.3-.43-15.97-.6-20.83Z"/>
      </g>
    </g>
  </g>
</svg>