<?xml version="1.0" encoding="UTF-8"?>
<svg id="Layer_2" data-name="Layer 2" xmlns="http://www.w3.org/2000/svg" viewBox="0 0 520.3 800">
  <defs>
    <style>
      .cls-1 {
        fill: #ede2da;
      }
    </style>
  </defs>
  <g id="Layer_1-2" data-name="Layer 1">
    <g>
      <path class="cls-1" d="M404.86,395.3c-31.03-11.77-111.75-22.67-111.75-22.67,0,0,79.03-21.31,119.32-50.74,51.93-39.83,80.7-82.96,80.7-145.36s-7.44-104.03-84.49-148.53C348.51,2.82,302.22-.78,243.65,.25c1.55,12.82,2.04,31.47,2.18,44.44l4.38,.09c2.51,.44,5.04,.82,7.58,1.08,18.55,1.94,36.45,6.33,53.48,14.04,105.87,42.96,102.41,210.94,6.22,263-12.44,7.54-26.29,12.93-39.86,18.4l-12.67,1.83c1.91,26.59,2.84,49.43,2.34,66.84l9.92,.85c24.26,4.81,47.56,12.34,69.11,24.69,109.24,64.66,77,249.98-27.48,304.15-6.59,3.55-13.58,6.37-20.56,9.21-4.41,1.79-9.06,2.92-13.8,3.33h0c.8,13.8,2.48,33.92,3.42,44.89,4.95-.36,9.89-.78,14.83-1.27,4.59-.45,9.18-.96,13.75-1.56,17.2-2.24,34.51-5.85,50.43-12.91,16.44-7.28,32.54-15.35,48.21-24.15,4.9-2.75,9.51-5.75,14.19-8.87,2.81-1.91,5.59-3.89,8.31-5.93,2.69-2.01,5.34-4.08,7.94-6.21s5.1-4.28,7.57-6.5c2.45-2.21,4.85-4.47,7.19-6.79,2.32-2.3,4.59-4.66,6.8-7.08s4.34-4.86,6.42-7.36,4.08-5.05,6.02-7.65c1.94-2.6,3.82-5.24,5.63-7.94s3.55-5.44,5.22-8.22,3.28-5.63,4.82-8.51c1.54-2.89,3.01-5.83,4.41-8.79,1.41-2.99,2.74-6.02,4-9.08,1.27-3.09,2.46-6.21,3.58-9.36,1.13-3.19,2.18-6.41,3.15-9.65,.99-3.29,1.9-6.6,2.73-9.93,.84-3.39,1.61-6.79,2.3-10.22,.7-3.49,1.32-6.99,1.86-10.5,.55-3.58,1.02-7.18,1.42-10.78s.73-7.37,.98-11.07,.43-7.56,.53-11.35c.07-2.57,.1-5.14,.1-7.71,0-83.71-34.01-145.12-115.43-172.42Z"/>
      <path class="cls-1" d="M185.44,760.87l-9.86,.86c-18.48-1.09-36.95-2.2-55.42-3.45-5.39-.36-11.06-.27-11.06-.27,0,0-.42-6.25-.65-11.56-1.1-25.19-6.6-337.53-6.61-338.8-.03-2.34-.02-6.87-.02-6.87,0,0,4.72,0,7.15,.07,2.23,.07,37.35,.1,52.67,.08l11.01,.94c-.38-22.92-.82-36.9-1.25-45.19l-11.45,1.66c-15.96-.09-31.92,.03-47.88-.05-4.99-.02-9.99,.16-9.99,.16,0,0-.24-5.61-.29-10.45-1.12-97.05,1.92-194.01,6.67-290.93,.22-4.52,.73-9.64,.73-9.64,0,0,4.67-.64,9.1-1.14,11.73-1.32,23.51-2.26,35.25-3.54l8.96,.19-.71-40.21C117.98,3.89,65.9,4.18,0,0,9,260.69,8.59,527.63,.07,799.96c30.38-2.93,109.29,.07,186.49,.04-.2-11.82-.8-29.99-1.12-39.13Z"/>
    </g>
  </g>
</svg>