<svg width="36" height="40" viewBox="0 0 36 40" fill="none" xmlns="http://www.w3.org/2000/svg">
<path fill-rule="evenodd" clip-rule="evenodd" d="M4 2C4 0.895431 4.89543 0 6 0L30 0C31.1046 0 32 0.895431 32 2C32 3.10457 31.1046 4 30 4L6 4C4.89543 4 4 3.10457 4 2Z" fill="#28221B"/>
<path fill-rule="evenodd" clip-rule="evenodd" d="M0 20C0 18.8954 0.895431 18 2 18L34 18C35.1046 18 36 18.8954 36 20C36 21.1046 35.1046 22 34 22L2 22C0.895431 22 0 21.1046 0 20Z" fill="#28221B"/>
<path fill-rule="evenodd" clip-rule="evenodd" d="M4 38C4 36.8954 4.89543 36 6 36L30 36C31.1046 36 32 36.8954 32 38C32 39.1046 31.1046 40 30 40L6 40C4.89543 40 4 39.1046 4 38Z" fill="#28221B"/>
</svg>
