<svg width="32" height="40" viewBox="0 0 32 40" fill="none" xmlns="http://www.w3.org/2000/svg">
<path d="M4 40C2.9 40 1.95867 39.6087 1.176 38.826C0.392 38.042 0 37.1 0 36V12C0 10.9 0.392 9.95867 1.176 9.176C1.95867 8.392 2.9 8 4 8H8C8 5.8 8.78333 3.91667 10.35 2.35C11.9167 0.783333 13.8 0 16 0C18.2 0 20.0833 0.783333 21.65 2.35C23.2167 3.91667 24 5.8 24 8H28C29.1 8 30.042 8.392 30.826 9.176C31.6087 9.95867 32 10.9 32 12V36C32 37.1 31.6087 38.042 30.826 38.826C30.042 39.6087 29.1 40 28 40H4ZM4 36H28V12H24V16C24 16.5667 23.8087 17.0413 23.426 17.424C23.042 17.808 22.5667 18 22 18C21.4333 18 20.9587 17.808 20.576 17.424C20.192 17.0413 20 16.5667 20 16V12H12V16C12 16.5667 11.8087 17.0413 11.426 17.424C11.042 17.808 10.5667 18 10 18C9.43333 18 8.95867 17.808 8.576 17.424C8.192 17.0413 8 16.5667 8 16V12H4V36ZM12 8H20C20 6.9 19.6087 5.95867 18.826 5.176C18.042 4.392 17.1 4 16 4C14.9 4 13.9587 4.392 13.176 5.176C12.392 5.95867 12 6.9 12 8ZM4 36V12V36Z" fill="#28221B"/>
</svg>
