<svg width="157" height="39" viewBox="0 0 157 39" fill="none" xmlns="http://www.w3.org/2000/svg">
<path d="M132.025 3.08325H144.975C149.908 3.08325 153.917 7.09159 153.917 12.0249V24.9749C153.917 27.3464 152.975 29.6207 151.298 31.2976C149.621 32.9745 147.346 33.9166 144.975 33.9166H132.025C127.092 33.9166 123.083 29.9083 123.083 24.9749V12.0249C123.083 9.65344 124.025 7.37909 125.702 5.70221C127.379 4.02532 129.654 3.08325 132.025 3.08325ZM131.717 6.16659C130.245 6.16659 128.833 6.75132 127.792 7.79214C126.751 8.83297 126.167 10.2446 126.167 11.7166V25.2833C126.167 28.3512 128.649 30.8333 131.717 30.8333H145.283C146.755 30.8333 148.167 30.2485 149.208 29.2077C150.249 28.1669 150.833 26.7552 150.833 25.2833V11.7166C150.833 8.64867 148.351 6.16659 145.283 6.16659H131.717ZM146.594 8.47909C147.105 8.47909 147.595 8.68212 147.956 9.04352C148.318 9.40491 148.521 9.89507 148.521 10.4062C148.521 10.9173 148.318 11.4074 147.956 11.7688C147.595 12.1302 147.105 12.3333 146.594 12.3333C146.083 12.3333 145.592 12.1302 145.231 11.7688C144.87 11.4074 144.667 10.9173 144.667 10.4062C144.667 9.89507 144.87 9.40491 145.231 9.04352C145.592 8.68212 146.083 8.47909 146.594 8.47909ZM138.5 10.7916C140.544 10.7916 142.505 11.6037 143.951 13.0493C145.396 14.4949 146.208 16.4555 146.208 18.4999C146.208 20.5443 145.396 22.5049 143.951 23.9505C142.505 25.3961 140.544 26.2083 138.5 26.2083C136.456 26.2083 134.495 25.3961 133.049 23.9505C131.604 22.5049 130.792 20.5443 130.792 18.4999C130.792 16.4555 131.604 14.4949 133.049 13.0493C134.495 11.6037 136.456 10.7916 138.5 10.7916ZM138.5 13.8749C137.273 13.8749 136.097 14.3622 135.23 15.2295C134.362 16.0969 133.875 17.2733 133.875 18.4999C133.875 19.7265 134.362 20.9029 135.23 21.7703C136.097 22.6376 137.273 23.1249 138.5 23.1249C139.727 23.1249 140.903 22.6376 141.77 21.7703C142.638 20.9029 143.125 19.7265 143.125 18.4999C143.125 17.2733 142.638 16.0969 141.77 15.2295C140.903 14.3622 139.727 13.8749 138.5 13.8749Z" fill="#28221B"/>
<path d="M36.4975 9.75C35.2462 10.3188 33.8975 10.6925 32.5 10.8713C33.93 10.01 35.035 8.645 35.555 7.00375C34.2063 7.81625 32.7112 8.385 31.135 8.71C29.8512 7.3125 28.0475 6.5 26 6.5C22.1813 6.5 19.0613 9.62 19.0613 13.4713C19.0613 14.0238 19.1263 14.56 19.24 15.0638C13.455 14.7713 8.30375 11.9925 4.875 7.78375C4.27375 8.8075 3.9325 10.01 3.9325 11.2775C3.9325 13.6988 5.15125 15.8438 7.03625 17.0625C5.8825 17.0625 4.81 16.7375 3.8675 16.25V16.2987C3.8675 19.6788 6.2725 22.5063 9.4575 23.14C8.43493 23.4198 7.36141 23.4588 6.32125 23.2538C6.76261 24.639 7.627 25.8512 8.7929 26.7198C9.95881 27.5884 11.3676 28.0697 12.8213 28.0963C10.3572 30.047 7.30275 31.1014 4.16 31.0863C3.6075 31.0863 3.055 31.0538 2.5025 30.9888C5.59 32.9713 9.2625 34.125 13.195 34.125C26 34.125 33.0363 23.4975 33.0363 14.2838C33.0363 13.975 33.0362 13.6825 33.02 13.3737C34.385 12.3987 35.555 11.1638 36.4975 9.75Z" fill="#28221B"/>
<path d="M99 18.5464C99 8.30877 90.488 0 80 0C69.512 0 61 8.30877 61 18.5464C61 27.5228 67.536 34.997 76.2 36.7218V24.1103H72.4V18.5464H76.2V13.9098C76.2 10.3303 79.183 7.41855 82.85 7.41855H87.6V12.9825H83.8C82.755 12.9825 81.9 13.817 81.9 14.8371V18.5464H87.6V24.1103H81.9V37C91.495 36.0727 99 28.1719 99 18.5464Z" fill="#28221B"/>
</svg>
